<svg height="26" viewBox="0 0 23 26" width="23" xmlns="http://www.w3.org/2000/svg"><path d="m19.1513108 18.1429582 3.510764 2.9440906c.352934.2944091.3715095.5888181.0557265.8832272-2.3962358 2.5576787-5.8512735 4.029724-9.5106413 4.029724s-6.7614715-1.2696391-9.343462-3.7905166c-2.58199049-2.5208776-3.863698-5.5753716-3.863698-9.1818826 0-3.58811037 1.28170751-6.6610049 3.863698-9.2186836 2.5819905-2.53927813 5.6840942-3.8089172 9.343462-3.8089172 3.6965188 0 7.1887074 1.50884643 9.5849431 4.06652513.2972076.29440904.2786321.5888181-.0743018.88322717l-3.5293396 2.98089173c-.2972075.23920734-.594415.22080677-.9101981-.03680113-1.4674622-1.3064402-3.1764055-1.95046003-5.1639809-1.95046003-1.9875755 0-3.67794333.68082096-5.07110367 2.04246286-1.39316033 1.36164187-2.0804528 3.03609337-2.0804528 5.02335457 0 2.0056617.68729247 3.6801132 2.0804528 5.0233545 1.39316034 1.3432414 3.08352817 2.0240623 5.07110367 2.0240623 1.9504244 0 3.6593678-.6256192 5.12683-1.8768577.315783-.2576079.6129906-.2760085.9101981-.0368012z" fill="#fff"/></svg>