<svg height="78" viewBox="0 0 750 78" width="750" xmlns="http://www.w3.org/2000/svg"><g fill="#fff" fill-rule="nonzero"><path d="m419.562921 12c.802248 1.85209 1.547191 3.9356913 2.349439 6.2508039h19.884269v5.2090032h-9.626966c-.573034 2.6045016-1.375281 5.1511254-2.406742 7.5819935h13.237079v5.3247589h-40.685393v7.8135048c-.229214 9.0289389-2.234832 16.3215434-6.131461 21.8199357l-4.183146-3.7041801c3.094382-4.3987138 4.698876-10.4180064 4.813483-18.1157556v-13.1382637h11.575281l-2.005618-7.5819935h-10.2v-5.2090032h20.170787c-.744944-1.9099679-1.604495-3.7041801-2.521349-5.3247589zm-5.532846 19h10.601504c1.015038-2.5648855 1.804511-5.2519084 2.368421-8h-15zm49.969925-16h32v20h-32zm27 15v-10h-22v10zm-14 9v26h-5.221622v-2.7733333h-10.5v2.7733333h-5.278378v-26zm-16 18h11v-13h-11zm43-18v26h-5.485564v-2.7733333h-11.144357v2.7733333h-5.370079v-26zm-17 18h11v-13h-11zm34.541538 8h-4.96923l-1.169231-5.0801317c1.52.2283205 2.923077.3424808 4.267692.3424808 1.403077 0 2.104616-.7991219 2.104616-2.3402854v-12.100988c-2.104616.7991219-4.267693 1.5982437-6.372308 2.2832053l-1.403077-5.3655324c2.630769-.5708013 5.203077-1.312843 7.775385-2.2261251v-12.3293085h-6.606154v-5.1942919h6.606154v-9.9890231h5.378461v9.9890231h5.729231v5.1942919h-5.729231v10.1602635c1.987692-.9132821 3.916923-1.8836444 5.846154-2.9110867v5.3084522c-1.929231 1.0274424-3.858462 1.9407245-5.846154 2.8540066v15.6970362c0 3.7672887-1.870769 5.7080132-5.612308 5.7080132zm11.885868-44.3138528h13.360522v-7.6861472h5.252855v7.6861472h13.360522v5.219697h-13.360522v8.2023809h11.190865v2.17619 2.6419918c-1.82708 5.965368-4.853181 11.1277057-9.192496 15.4296537 3.539967 2.6385281 7.879282 4.9902597 12.960848 6.9978355l-2.797716 4.474026c-5.48124-2.4090909-10.106036-5.1623377-13.874388-8.1450217-4.339315 3.3841992-9.59217 6.1374459-15.758565 8.3170996l-2.569331-4.5313853c5.709625-1.8354978 10.562806-4.1872294 14.502447-7.1699134-4.453507-4.474026-7.422512-9.4642857-8.964111-15.0854978h-2.969005v-5.1049784h12.218597v-8.2023809h-13.360522zm9.572594 18.3138528c1.343284 4.5 3.80597 8.4807692 7.44403 12 3.358209-3.4615385 5.876866-7.4423077 7.55597-12zm34.016304-12.7356446h21.891305v-13.2643554h5.415217v13.2643554h21.948913v5.2253521h-16.936956c3.686956 8.9577465 9.908695 16.9393283 18.665217 23.9447454l-3.686957 4.5937161c-9.505434-8.3835319-16.188043-17.80065-19.990217-28.2513543v34.2231853h-5.415217v-34.1083424c-4.205435 11.4842904-11.176087 20.9588299-20.911957 28.3661972l-2.995652-4.8808234c8.641304-6.2015168 14.978261-14.1830986 18.895652-23.8873239h-16.879348zm36.294376-13.2643554c3.320388 3.4285714 5.883495 6.4 7.68932 8.9142857l-4.427184 3.0857143c-1.864078-2.8571429-4.427185-5.9428571-7.572816-9.3714286zm44.55679 22.8292683h-10.564544v21.9645233c0 1.383592.738382 2.1330377 2.271945 2.1330377h9.88296c1.703959 0 2.783133-.4611974 3.180723-1.3259424.454389-.9223947.795181-2.8824834 1.022375-5.8226164l5.055078 1.72949c-.454389 5.0155211-1.135973 8.0709535-2.158348 9.1086475-.908778.9223947-2.783132 1.383592-5.509466 1.383592h-13.802066c-3.578313 0-5.33907-1.72949-5.33907-5.1884701v-27.383592l-2.726334 2.7671841-3.180723-4.4390244c5.395869-5.0155211 10.337349-10.9534368 14.824441-17.7560976h3.975903c4.998279 5.3037694 9.769363 10.8381375 14.199656 16.6031042l-3.521515 3.7472284c-4.884681-6.5720621-8.917383-11.6452328-12.211704-15.1618625-2.953528 4.4390244-6.247848 8.7050997-9.996557 12.7982261h19.879518v15.9113082c-.056799 3.1707317-1.760757 4.8425721-5.168675 5.0731708-2.215146 0-4.316695-.0576497-6.304647-.172949l-1.306368-5.1308204c2.101549.2305986 3.919105.345898 5.509466.345898 1.306368 0 1.987952-.691796 1.987952-1.9600887zm14.13253-17.8292683h5v35h-5zm9.575646 47h-8.357934l-1.217712-5.194292c2.712177.2283205 5.313653.3424808 7.749077.3424808 1.328414 0 1.99262-.856202 1.99262-2.5115258v-44.636663h5.258303v46.0065862c0 3.9956092-1.826568 5.9934138-5.424354 5.9934138zm64.351627-52 2.884848 5.4152174c-4.808081 1.6130435-10.125252 2.5923913-15.951515 2.9380435v8.9293478h17.139394v5.7032609h-5.20404v30.0141304h-5.826263v-30.0141304h-6.109091v5.4728261c-.282828 10.1967391-2.488889 18.3195652-6.618182 24.4260869l-4.242424-4.5510869c3.167677-4.7815218 4.921212-11.4065218 5.147475-19.875v-25.002174c7.014141-.1152174 13.236363-1.2673913 18.779798-3.4565217zm-47.927273 4.2295082h9.799564c-.679738-1.5027322-1.416122-2.8852459-2.20915-4.147541l6.117647-1.0819672c.679739 1.5628415 1.302832 3.3060109 1.982571 5.2295082h10.309368v5.7704918h-26zm0 13.0228158h5.797895c-.682106-1.8844621-1.477895-3.6547144-2.387369-5.253652l5.229474-1.998672c.852632 2.0557769 1.648421 4.4541833 2.444211 7.252324h5.002105c.852631-2.3413014 1.591579-4.7397078 2.216842-7.252324l5.286316 1.8844622c-.682106 1.941567-1.364211 3.7118193-2.103158 5.3678618h5.513684v5.4249668h-10.288421v4.625498h9.322105v5.4249668h-9.322105v17.8065629c0 1.0552826-1.989474 2.4656815-5.911579 2.4656815v-6.7383798-13.5338646h-9.890526v-5.4249668h9.890526v-4.625498h-10.8zm3.380435 17.747676 5.619565 1.122807c-1.375 5.7263158-3.288043 10.6666667-5.798913 14.877193l-5.201087-3.0877193c2.570652-4.0421053 4.36413-8.3649123 5.380435-12.9122807zm18.397343-1c1.333333 3.6292683 2.444444 6.9658537 3.222222 10.0097561l-4.888889 1.9902439c-.833333-3.6292683-1.888889-7.2-3.111111-10.6536585z"/><path d="m57.4539324 54.4288747 10.5322921 8.8322718c1.0588019.8832272 1.1145283 1.7664543.1671793 2.6496815-7.1887074 7.6730361-17.5538203 12.089172-28.5319238 12.089172-10.9781034 0-20.2844145-3.8089172-28.030386-11.3715499-7.74597146-7.5626327-11.591094-16.7261146-11.591094-27.5456476 0-10.7643312 3.84512254-19.9830148 11.591094-27.6560509 7.7459715-7.6178344 17.0522826-11.4267516 28.030386-11.4267516 11.0895563 0 21.5661221 4.52653928 28.7548294 12.1995754.8916226.8832271.8358962 1.7664543-.2229056 2.6496815l-10.5880186 8.9426752c-.8916226.717622-1.7832452.6624203-2.7305943-.1104034-4.4023866-3.9193206-9.5292167-5.8513801-15.4919429-5.8513801-5.9627263 0-11.0338299 2.0424629-15.2133109 6.1273886-4.179481 4.0849256-6.2413584 9.1082802-6.2413584 15.0700636 0 6.0169852 2.0618774 11.0403398 6.2413584 15.0700637 4.179481 4.029724 9.2505846 6.0721869 15.2133109 6.0721869 5.8512734 0 10.9781034-1.8768578 15.3804901-5.6305733.947349-.7728237 1.8389717-.8280254 2.7305943-.1104034zm59.4610586-53.49186683 35.826978 73.85826773c.660405 1.2677165 0 2.2047244-1.375844 2.2047244h-14.198711c-.935573 0-1.651012-.4409449-2.036249-1.2677165l-3.797329-8.3228347h-32.6900533l-3.7973295 8.3228347c-.3852363.8267716-1.0456414 1.2677165-2.0362491 1.2677165h-14.3087775c-1.2657765 0-1.8161141-.9370079-1.3208102-2.2047244l35.8820116-73.85826773c.385236-.60629921.825506-.93700787 1.430877-.93700787h.880541c.660405 0 1.155709.33070866 1.540945.93700787zm-10.914991 52.06299213h19l-9.5-20zm59.957237-53h12.973684c1.0625 0 2.069079.83213257 2.069079 1.88616715v73.11671465c0 1.0540346-.894737 1.9971182-1.957237 1.9971182h-13.029605c-1.174342 0-2.013158-.8876081-2.013158-1.9971182v-73.11671465c0-1.05403458.782895-1.88616715 1.957237-1.88616715zm93.733103 1.88844205-24.029626 36.61272395 24.029626 36.5017763c.662886.8875812 0 1.9970577-1.04957 1.9970577h-16.185472c-.718127 0-1.04957-.4437906-1.436253-.943055-.165722-.1664215-.497165-.9985288-.662887-1.0540027l-14.307294-21.8012129-14.362535 21.8012129c-.883848.8875812-.883848 1.9970577-2.099139 1.9970577h-16.240713c-1.04957 0-1.657215-1.1094765-1.04957-1.9970577l24.084866-36.5017763-24.084866-36.61272395c-.662886-1.05400266-.165721-1.88611002.99433-1.88611002h16.185472c.607645 0 .994329.33284295 1.325772.72115972.165722.27736912.607646.94305501.662886 1.1649503l14.473016 21.96763435 14.528256-21.96763435c.607646-.99852883.99433-1.94158384 1.988659-1.88611002h16.295953c1.160051 0 1.601975.83210736.939089 1.88611002zm12.266897-1.88844205h12.973684c1.0625 0 2.069079.83213257 2.069079 1.88616715v73.11671465c0 1.0540346-.894737 1.9971182-1.957237 1.9971182h-13.029605c-1.174342 0-2.013158-.8876081-2.013158-1.9971182v-73.11671465c0-1.05403458.782895-1.88616715 1.957237-1.88616715zm77.969137 16.6426513h-31.889011v14.4236311h16.532967c1.064835 0 2.017582.8876081 2.017582 1.9416427v12.7038905c0 1.1649856-.840659 1.9971181-2.017582 1.9971181h-16.420879v12.537464h31.776923c1.064835 0 2.073626.8876081 2.073626 1.9416426v12.8148415c0 1.1649856-.896703 1.9971182-2.073626 1.9971182h-46.852748c-1.176923 0-2.073626-.8876081-2.073626-1.9971182v-73.11671465c0-1.05403458.784615-1.88616715 1.961538-1.88616715h46.964836c1.064835 0 2.073626.83213257 2.073626 1.88616715v12.81484145c0 1.2759366-.672527 1.9416427-2.073626 1.9416427z"/></g></svg>