<svg height="78" viewBox="0 0 750 78" width="750" xmlns="http://www.w3.org/2000/svg"><g fill="#fff" fill-rule="nonzero"><path d="m53.0542786 54.5106082 9.3882603 8.9108911c1.0077793.8486563 1.0077793 1.6973126 0 2.5990099-8.1683168 7.3196605-17.6096181 10.9794908-28.2708628 10.9794908-10.6612447-.053041-19.3069307-3.8189533-25.88401698-11.2977369-6.6301273-7.4787836-9.28217822-16.5487978-7.95615275-27.2100424 1.21994342-10.1838756 5.88755304-18.8295616 14.00282883-25.884017 8.0622348-7.05445547 17.291372-10.6082037 27.6874116-10.6082037 10.8734088 0 20.4738331 4.34936351 26.1492221 11.9872702.8486563 1.1138613 1.2199434 1.3260254.4243281 2.2807637l-11.1386138 8.486563c-.9547384.6364922-1.6442716 0-2.4929279-.8486563-3.5537482-3.1294201-8.2213578-4.7206506-13.8967468-4.6676096-5.8875531 0-11.1386139 2.0155587-15.7531825 5.9936351-4.6145686 3.9780763-7.3196605 8.910891-8.0622348 14.692362-.6895332 5.569307.6895333 10.2899576 4.0311174 14.1089109 3.3415842 3.8719944 7.7439887 5.781471 13.2602546 5.781471 5.8875531 0 11.1916549-1.8564356 15.8592645-5.5162659.9016973-.6895332 1.8033946-.5834512 2.6520509.2121641zm71.6371994-51.02545969 25.300566 70.33239039c.477369 1.2199434-.689533 2.4929279-2.121641 2.4929279h-13.896747c-.742574 0-1.272984-.4243282-1.538189-1.2199435l-2.758133-8.2743988h-30.2864217l-4.6145686 7.9031117c-.6895332 1.0608204-1.4321075 1.5912306-2.2807638 1.5912306h-13.8967468c-1.0077794 0-1.3790665-1.0608204-.7425743-1.9094767l42.8571432-70.91584159c.477369-.84865629 1.007779-1.27298444 1.59123-1.27298444h1.00778c.477369 0 .954738.42432815 1.379066 1.27298444zm-17.026167 48.90381899h17.132249l-6.25884-18.7765205zm73.387553-49.69943426h12.252475c1.060821 0 1.53819.47736916 1.485149 1.4321075l-8.645686 69.90806226c-.159123 1.0077793-1.485149 2.2807638-2.492928 2.2807638h-12.358557c-1.00778 0-1.432108-.5304102-1.379067-1.5912306l8.645686-69.85502121c.159123-1.00777935 1.432108-2.17468175 2.492928-2.17468175zm80.972419 0h15.753182c1.113862 0 1.803395 1.21994342 1.113862 2.06859972l-27.740453 35.37835924 18.72348 34.529703c.477369.8486563.265205 1.6442716-.742575 1.6442716h-15.222772c-.689533 0-1.379066-.7425743-2.174682-2.2807638l-11.032532-20.5268741-16.70792 21.1633663c-.848657 1.1138614-1.591231 1.6442716-2.174682 1.6442716h-15.6471c-1.113862 0-1.750354-1.4321075-1.113862-2.2807638l27.687412-35.2722773-18.564357-34.63578496c-.583451-1.00777935-.424328-1.48514852.53041-1.4321075h15.381896c.53041 0 1.007779.47736916 1.272984.90169731.159123.31824611.583451.95473833.636492 1.16690241l11.244696 20.73903814 16.760962-21.37553036c.795615-.95473834 1.432108-1.4321075 2.015559-1.4321075zm38.592645 0h12.252475c1.06082 0 1.53819.47736916 1.485149 1.4321075l-8.645686 69.90806226c-.159123 1.0077793-1.485149 2.2807638-2.492928 2.2807638h-12.358558c-1.007779 0-1.432107-.5304102-1.379066-1.5912306l8.645686-69.85502121c.159123-1.00777935 1.432107-2.17468175 2.492928-2.17468175zm39.441301 0h44.501415c1.007779 0 1.432107.47736916 1.379066 1.4321075l-1.591231 12.25247526c-.159123 1.1138614-1.485148 2.2277228-2.599009 2.2277228h-29.702971l-1.750353 13.7906647h16.018387c1.113862 0 1.53819.4773692 1.379067 1.4851486l-1.485149 12.1463932c-.159123 1.1138613-1.485148 2.2807638-2.545969 2.2807638h-15.328854l-1.432107 11.9872701h30.445544c1.113861 0 1.53819.4773692 1.379067 1.4851485l-1.485149 12.2524753c-.159123 1.1138614-1.485148 2.2807638-2.545969 2.2807638h-44.395332c-1.00778 0-1.432108-.5304102-1.379067-1.5912306l8.645686-69.85502121c.159123-1.00777935 1.379067-2.17468175 2.492928-2.17468175z"/><path d="m449.679663 38.0200211.126449-.1264489c1.643835 1.7702845 7.144362 9.2307692 8.345627 11.0642782l-4.741834 5.8166491c-.758693-2.0231823-2.212855-5.1211802-3.730242-7.9662803v21.4963119h-6.701792v-18.2086407c-1.643835 4.4889357-3.477344 8.5985248-5.500526 11.5068493-.695469-2.2760801-2.402529-5.6269757-3.477345-7.7766069 3.097998-3.9199157 6.132771-10.6849315 8.029505-16.4383562h-6.954689v-7.0179136h7.903055v-2.7186512l-5.12118 1.2012645c-.126449-3.7934668-1.390938-9.7997893-2.8451-14.2255005l4.868283-1.264489c1.580611 4.236038 2.781875 9.7365648 3.097997 13.5932561v-17.19704954h6.701792v16.12223394c1.13804-3.8566913 2.212855-9.0410959 2.781875-12.8345627l5.943098 1.2644889c-1.517386 4.9315069-3.224446 10.8113804-4.741833 14.4783983l-3.98314-1.13804v2.7818757h6.006322v6.9546891h-6.006322zm17.955743 16.0590095h15.237091v-3.0979979h-15.237091zm15.237091-11.0642782h-15.237091v3.0979979h15.237091zm7.017914-5.3108536v24.0252898c0 3.0979979-.632245 4.7418335-2.781876 5.6902002-2.023182.9483667-5.057955 1.0748156-9.10432 1.0115912-.252898-1.7702845-1.13804-4.236038-1.959958-5.943098 2.339305.1264489 4.994731.1264489 5.753425.0632244.821918 0 1.074815-.2528978 1.074815-.9483667v-2.6554267h-15.237091v9.6101159h-6.891465v-30.8535301zm-11.3804-7.9662803h14.984193v5.4373025h-36.101159v-5.4373025h14.035827v-2.7818756h-10.748155v-4.9947313h10.748155v-2.5289779h-12.265542v-5.374078h12.265542v-4.48893568h7.081139v4.48893568h13.466807v5.374078h-13.466807v2.5289779h12.075869v4.9947313h-12.075869zm40.969441-2.7818756-7.39726 3.540569c-1.390938-4.0463646-4.805058-10.6217071-7.586934-15.4899895l6.765016-3.0347734c2.908325 4.6786091 6.512118 11.0010537 8.219178 14.9841939zm-7.017914 38.6933614-7.903055-3.2876712c2.718651-5.2476291 6.385669-13.6564805 9.230769-21.6227608l7.017913 3.4141201c-2.592202 7.4604847-5.626975 15.1738672-8.345627 21.4963119zm18.714437-14.0358272v6.1327714h11.3804v-6.1327714zm11.3804-18.7776607v-6.0063224h-11.3804v6.0063224zm0 12.3287672v-5.8798736h-11.3804v5.8798736zm20.800843 12.5816649v6.7017913h-32.181243v4.1095891h-6.891465v-32.8767124c-1.454162 1.8967334-2.971549 3.7302424-4.488936 5.3108536-1.13804-1.4541623-3.793467-4.236038-5.247629-5.5005269 6.512118-5.943098 11.949421-15.6164384 14.984194-25.60590094l6.954689 1.70706004c-1.011591 2.971549-2.149631 5.8798736-3.41412 8.7249737h11.317176c-1.13804-2.4657534-2.8451-5.4373024-4.299262-7.776607l6.448893-2.90832453c2.023183 2.78187563 4.236038 6.51211803 5.374078 8.97787143l-3.287671 1.7070601h13.719705v6.512118h-12.455216v6.0063224h11.253951v6.4488936h-11.253951v5.8798736h11.127503v6.4488935h-11.127503v6.1327714zm27.060063-3.4773446v-15.8061117h-5.6902v15.8061117zm7.207587-35.0263435h-9.293993c-.821918 4.2360379-1.959958 8.5353003-3.350896 12.5816649h11.822971v29.0832455h-12.075869v4.6153846h-6.25922v-19.6628029c-.821918 1.2012645-1.70706 2.402529-2.592202 3.4773445-.252898-2.0231822-1.517387-6.8282402-2.528978-8.9778714 3.856691-5.1844046 6.448893-12.8345627 8.029504-21.1169652h-6.701791v-6.8282403h22.950474zm14.415174 15.9325606h7.081138v-15.6164384h-7.081138zm20.864068 0v7.081138h-6.638567v26.3013699h-7.144363v-26.3013699h-7.207587c-.379346 9.2939937-2.212855 19.8524763-8.724973 26.743941-1.264489-1.3277134-3.983141-3.4141201-5.690201-4.3624868 5.437303-5.8798736 7.017914-14.6680717 7.397261-22.3814542h-5.879874v-7.081138h6.006323v-15.6164384h-4.362487v-6.9546891h30.979979v6.9546891h-5.374078v15.6164384zm63.98314-16.8177029-6.069547 3.9199157c-1.580611-2.3393045-4.868283-6.2592202-7.334036-9.1043203l5.816649-3.47734459c2.465754 2.65542679 5.879874 6.32244469 7.586934 8.66174919zm-10.558483 24.0885142h-15.553214c2.149631 3.4773446 4.805058 6.5753425 7.966281 9.2307693 3.097997-2.6554268 5.626975-5.7534247 7.586933-9.2307693zm5.437303-7.5869336 5.247629 2.4657535c-2.528978 7.8398314-6.575343 13.9726027-11.759747 18.7144362 4.994731 2.6554268 10.874604 4.6153846 17.766069 5.7534247-1.643836 1.6438356-3.667018 4.7418335-4.678609 6.8282402-7.713382-1.5806112-14.099052-4.1728135-19.47313-7.7133825-5.437302 3.4773446-11.696522 5.943098-18.524763 7.7133825-.821917-2.0231823-2.528977-4.9315068-3.919915-6.6385669 5.943098-1.2644889 11.443625-3.2876712 16.311907-6.0695469-2.655427-2.5289779-4.868282-5.374078-6.82824-8.5985247-4.299263 6.6385669-10.052687 12.0758693-17.702845 16.3751317-1.011591-1.6438356-3.667018-4.7418335-5.500527-6.0695469 11.190727-6.0063225 17.955743-15.426765 22.065332-27.6290833h-8.219178c-3.41412 0-6.069547.5057956-6.638567 1.4541623-.442571-1.5806112-1.643836-4.9947313-2.465754-6.8282402.948367-.3161223 1.896734-1.2012645 2.718652-2.5922024.821917-1.3277133 3.161222-6.2592202 4.362486-11.190727l7.966281 1.2644889c-1.074816 3.6037935-2.718652 7.4604847-4.425712 10.6849315h8.724974c1.011591-4.2992624 1.833509-8.914647 2.402529-13.7829294l8.408851 1.3909378c-.56902 4.2992624-1.264488 8.4720759-2.086406 12.3919916h25.353003v7.2075869h-27.186512c-.56902 1.833509-1.13804 3.4773446-1.770285 5.1844047h18.461539z"/></g></svg>