<svg height="78" viewBox="0 0 750 78" width="750" xmlns="http://www.w3.org/2000/svg"><g fill="#fff" fill-rule="nonzero"><path d="m49.5173267 53.009901 8.7623763 8.3168317c.940594.7920792.940594 1.5841584 0 2.4257425-7.6237624 6.8316832-16.4356436 10.2475248-26.3861386 10.2475248-9.9504951-.049505-18.019802-3.5643564-24.15841589-10.5445545-6.18811881-6.980198-8.66336633-15.4455445-7.42574257-25.3960396 1.13861386-9.5049505 5.49504951-17.5742574 13.06930696-24.1584158 7.5247524-6.58415842 16.1386138-9.9009901 25.8415841-9.9009901 10.1485149 0 19.1089109 4.05940594 24.4059406 11.1881188.7920792 1.039604 1.1386139 1.2376238.3960396 2.1287129l-10.3960396 7.9207921c-.8910891.5940594-1.5346534 0-2.3267326-.7920792-3.3168317-2.9207921-7.6732674-4.4059406-12.9702971-4.3564357-5.4950495 0-10.3960396 1.8811881-14.7029703 5.5940594s-6.8316831 8.3168317-7.5247525 13.7128713c-.6435643 5.1980198.6435644 9.6039604 3.7623763 13.1683168 3.1188119 3.6138614 7.2277228 5.3960396 12.3762376 5.3960396 5.4950495 0 10.4455446-1.7326732 14.8019802-5.1485148.8415842-.6435644 1.6831683-.5445545 2.4752475.1980198zm66.8613863-47.62376239 23.613861 65.64356439c.445545 1.1386138-.643564 2.3267326-1.980198 2.3267326h-12.970297c-.693069 0-1.188119-.3960396-1.435643-1.1386138l-2.574258-7.7227723h-28.2673265l-4.3069307 7.3762376c-.6435644.990099-1.3366337 1.4851485-2.1287129 1.4851485h-12.970297c-.9405941 0-1.2871287-.990099-.6930693-1.7821782l40.0000004-66.18811879c.445544-.7920792.940594-1.18811881 1.485148-1.18811881h.940594c.445545 0 .891089.39603961 1.287129 1.18811881zm-15.891089 45.64356439h15.990099l-5.841584-17.5247525zm68.495049-46.38613864h11.435644c.990099 0 1.435643.44554455 1.386138 1.33663366l-8.069306 65.24752478c-.148515.940594-1.386139 2.1287128-2.326733 2.1287128h-11.534654c-.940594 0-1.336633-.4950495-1.287128-1.4851485l8.069307-65.19801977c.148514-.94059406 1.336633-2.02970297 2.326732-2.02970297zm75.574258 0h14.70297c1.039604 0 1.683168 1.13861386 1.039604 1.93069307l-25.891089 33.01980197 17.475247 32.2277228c.445545.7920792.247525 1.5346534-.693069 1.5346534h-14.207921c-.643564 0-1.287128-.6930693-2.029703-2.1287128l-10.297029-19.1584159-15.59406 19.7524753c-.792079 1.0396039-1.485148 1.5346534-2.029703 1.5346534h-14.60396c-1.039604 0-1.633664-1.3366336-1.039604-2.1287128l25.841584-32.9207921-17.326733-32.32673268c-.544554-.94059406-.396039-1.38613861.49505-1.33663366h14.356435c.49505 0 .940595.44554455 1.188119.84158415.148515.29702971.544555.89108911.59406 1.08910892l10.495049 19.35643567 15.643565-19.95049508c.742574-.89108911 1.336633-1.33663366 1.881188-1.33663366zm36.019802 0h11.435643c.990099 0 1.435644.44554455 1.386139 1.33663366l-8.069307 65.24752478c-.148515.940594-1.386139 2.1287128-2.326733 2.1287128h-11.534653c-.940594 0-1.336634-.4950495-1.287129-1.4851485l8.069307-65.19801977c.148515-.94059406 1.336634-2.02970297 2.326733-2.02970297zm36.811881 0h41.534653c.940594 0 1.336634.44554455 1.287129 1.33663366l-1.485148 11.43564358c-.148515 1.0396039-1.386139 2.0792079-2.425743 2.0792079h-27.722772l-1.633664 12.8712871h14.950495c1.039604 0 1.435644.4455446 1.287129 1.3861386l-1.386139 11.3366337c-.148514 1.039604-1.386138 2.1287129-2.376237 2.1287129h-14.306931l-1.336634 11.1881188h28.415842c1.039604 0 1.435644.4455445 1.287129 1.3861386l-1.386139 11.4356436c-.148515 1.0396039-1.386138 2.1287128-2.376237 2.1287128h-41.435644c-.940594 0-1.336634-.4950495-1.287129-1.4851485l8.069307-65.19801977c.148515-.94059406 1.287129-2.02970297 2.326733-2.02970297z"/><path d="m409.977918 36.6540484h11.076761v-11.8023134h-11.076761zm27.038906 0v5.5141956h-9.915878v19.6866456h-6.046267v-19.6866456h-11.415352c-.870662 7.2071503-3.57939 14.5594111-11.995794 19.831756-.967403-1.3059937-3.192429-3.3375394-4.643533-4.3049422 7.06204-4.256572 9.674027-9.8191377 10.59306-15.5268138h-10.44795v-5.5141956h10.931651v-11.8023134h-9.335436v-5.4174553h40.824395v5.4174553h-8.464774v11.8023134zm48.321767-13.2050473-4.643533 2.9989484c-1.209254-1.789695-3.724501-4.7886435-5.610936-6.9652997l4.450053-2.6603575c1.886435 2.0315458 4.498422 4.8370137 5.804416 6.6267088zm-8.077813 18.429022h-11.899053c1.644584 2.6603576 3.67613 5.0304943 6.094637 7.06204 2.370136-2.0315457 4.304942-4.4016824 5.804416-7.06204zm4.159832-5.8044164 4.014721 1.8864354c-1.934805 5.9978969-5.030494 10.6898002-8.996845 14.3175604 3.821241 2.0315458 8.319663 3.53102 13.592008 4.4016825-1.257623 1.2576235-2.805468 3.6277602-3.57939 5.2239747-5.901157-1.2092534-10.78654-3.192429-14.898002-5.9011567-4.159832 2.6603576-8.948475 4.5467929-14.17245 5.9011567-.628812-1.5478443-1.934806-3.7728706-2.998949-5.0788643 4.546793-.9674028 8.754995-2.5152471 12.479496-4.6435331-2.031546-1.9348055-3.724501-4.1114617-5.223975-6.5783386-3.289169 5.0788643-7.690852 9.2386961-13.543638 12.5278654-.773922-1.2576236-2.805468-3.6277603-4.208202-4.6435332 8.561514-4.5951629 13.737119-11.8023133 16.881178-21.1377497h-6.288118c-2.611988 0-4.643533.3869611-5.078865 1.1125131-.338591-1.2092534-1.257623-3.8212408-1.886435-5.2239747.725552-.2418507 1.451104-.9190326 2.079916-1.9831756.628812-1.0157729 2.418507-4.7886436 3.337539-8.5615142l6.094638.9674027c-.822293 2.7570978-2.079916 5.7076761-3.38591 8.1745531h6.675079c.773922-3.2891693 1.402734-6.8201893 1.838065-10.5446898l6.433228 1.064143c-.435331 3.2891693-.967402 6.4815983-1.596214 9.4805468h19.396425v5.5141956h-20.799159c-.435331 1.402734-.870663 2.6603575-1.354364 3.9663512h14.12408zm15.381703-.4353312h44.500526v6.2397476h-44.500526zm71.152471 26.1198738v-29.5541535h5.997897v29.5541535zm2.998949-45.1777077 5.175605 2.466877c-.483702.7255521-.967403 1.4994742-1.451105 2.2733964 7.400631 7.3038907 13.97897 10.8832808 19.589906 13.0115668-1.596215 1.3543638-3.43428 3.5793901-4.256572 5.4658255-5.272345-2.5636173-11.270242-6.1430074-18.815983-13.9789696-5.272345 6.0462671-11.899054 10.7381704-18.912724 13.9305994-.919032-1.7413249-2.563617-4.0147213-4.208202-5.6109358 9.190326-3.4342797 17.945321-9.3838066 22.879075-17.5583597zm42.61409 25.2008413h19.735016v-5.9011567h-19.396425c-.04837 1.8380652-.14511 3.8696109-.338591 5.9011567zm19.735016-17.2681388h-19.396425v5.9011566h19.396425zm6.094637-5.6109359v35.5520505c0 3.4826498-.822292 5.1272345-3.047318 6.0946372-2.321767 1.0157729-5.707676 1.1125131-10.6898 1.1125131-.338591-1.6929547-1.499475-4.4500525-2.418507-6.046267 3.385909.1934805 7.449001.1451104 8.513144.1451104 1.160883 0 1.547844-.3869611 1.547844-1.402734v-7.0136698h-20.702418c-1.257624 5.4174553-3.676131 10.6898002-8.174553 14.4626709-.870663-1.2092535-3.19243-3.3375395-4.450053-4.1598318 7.303891-6.2397476 7.981072-15.4784437 7.981072-22.8307045v-15.913775zm56.786541 3.8212408v5.6109359h-42.42061v-5.6109359h18.864353c-.677182-1.5962145-1.596214-3.3375394-2.466877-4.7886435l5.514196-1.9348055c1.305994 2.0799159 2.902208 4.8370137 3.53102 6.6750789l-.145111.0483701zm-16.590957 8.9968454 4.546793-3.2407991c4.159832 2.853838 9.770767 7.1104101 12.431125 10.2060988l-4.933754 3.7245005c-2.370137-2.9989484-7.739222-7.5457413-12.044164-10.6898002zm-14.365931-2.9505783 5.562566 2.128286c-3.289169 4.256572-8.513144 8.6582545-12.818086 11.2702419-1.064143-1.1608833-3.240799-3.2407992-4.546793-4.2082019 4.304942-2.1766562 8.996845-5.7076762 11.802313-9.190326zm16.107256 8.3196635 5.804416 1.6929548c-1.934805 4.4984227-4.498422 8.2712934-7.642481 11.3669821 4.643533 3.0473186 10.447949 5.1272345 17.558359 6.1913775-1.257623 1.2576236-2.757098 3.6277603-3.48265 5.1756046-7.642481-1.4511041-13.688748-3.917981-18.574132-7.5941114-5.127235 3.6277602-11.366982 6.0946372-18.477392 7.8359621-.677182-1.3059937-2.370137-3.8696109-3.48265-5.1272345 7.01367-1.3543638 12.963197-3.4342797 17.70347-6.5783386-2.853838-3.0956887-5.223975-6.8201892-7.06204-11.1251314l5.175605-1.5962145c1.451104 3.53102 3.53102 6.6750788 6.191377 9.2870662 2.757098-2.6119874 4.885384-5.7560462 6.288118-9.5289169zm34.391167-20.2187171 5.707676 1.8380652c-1.305994 3.2407991-2.805468 6.5299684-4.595163 9.7707676v33.2302839h-5.901156v-24.2334385c-1.112514 1.402734-2.273397 2.7087276-3.38591 3.8696109-.628812-1.4027339-2.370137-4.595163-3.38591-5.9978969 4.595163-4.4016825 8.996846-11.3669821 11.560463-18.4773922zm33.810726 10.1577287v5.8044164h-5.320715v21.960042c0 3.7245006-.870663 5.2239748-3.192429 6.0946373-2.370137.9190326-5.997897 1.0157728-11.318612.9674027-.338591-1.6445847-1.354364-4.2082019-2.225027-5.7076761 3.724501.1451104 7.981073.1451104 9.093586.0967402 1.209253 0 1.644585-.3869611 1.644585-1.4511041v-21.960042h-18.429022v-5.8044164h18.429022v-9.8675079h5.997897v9.8675079zm-15.817035 20.4605678-5.514196 2.8054679c-1.209253-2.9505783-4.063091-7.9327024-6.239747-11.6088328l5.127234-2.3701367c2.176656 3.53102 5.175605 8.2712934 6.626709 11.1735016z"/></g></svg>