<svg height="78" viewBox="0 0 357 78" width="357" xmlns="http://www.w3.org/2000/svg"><path d="m55.3331674 54.6110325 9.7915227 9.2673268c1.0510675.8826025 1.0510675 1.7652051 0 2.7029703-8.5191779 7.6124469-18.36602 11.4186704-29.4852069 11.4186704-11.1191868-.0551627-20.1362388-3.9717115-26.99583671-11.7496464-6.91491719-7.7779349-9.68088407-17.2107496-8.29790063-28.2984441 1.27234476-10.5912306 6.14044647-19.582744 14.60430514-26.9193777 8.4085393-7.33663364 18.034104-11.0325318 28.8766942-11.0325318 11.3404642 0 21.3532643 4.52333805 27.2724334 12.466761.8851094 1.1584158 1.2723448 1.3790664.4425547 2.3719943l-11.6170609 8.8260255c-.9957481.6619519-1.7148995 0-2.6000089-.8826026-3.7063956-3.2545969-8.5744973-4.9094766-14.4936664-4.854314-6.1404465 0-11.6170609 2.0961811-16.4298432 6.2333805-4.8127824 4.1371994-7.6340686 9.2673267-8.4085394 15.2800566-.7191513 5.7920792.7191514 10.7015558 4.2042697 14.6732673 3.4851183 4.0268741 8.0766233 6.0127298 13.8298344 6.0127298 6.1404465 0 11.6723802-1.930693 16.5404819-5.7369165.9404288-.7171146 1.8808575-.6067893 2.7659669.2206506zm65.4027636-53.28819785 26.151813 73.08661415c.493431 1.2677166-.712732 2.5905512-2.193024 2.5905512h-14.364308c-.767558 0-1.315814-.4409449-1.589942-1.2677165l-2.850932-8.5984252h-31.3054198l-4.7698276 8.2125984c-.7127328 1.1023622-1.4802913 1.6535433-2.3575009 1.6535433h-14.3643083c-1.0416865 0-1.4254657-1.1023622-.7675585-1.984252l44.2990881-73.69291335c.49343-.88188977 1.041687-1.32283465 1.644768-1.32283465h1.041687c.49343 0 .986861.44094488 1.425465 1.32283465zm-17.735931 51.67716535h18l-6.575851-20zm67.642473-52h12.801661c1.108369 0 1.607135.49927954 1.551717 1.49783862l-9.033207 73.11671468c-.166256 1.0540346-1.551717 2.3854467-2.604667 2.3854467h-12.912498c-1.052951 0-1.496298-.554755-1.44088-1.6642651l9.033207-73.06123922c.166255-1.05403458 1.496298-2.27449568 2.604667-2.27449568zm75.606438-.99583956h16.312072c1.153378 0 1.867375 1.27586766 1.153378 2.16342777l-28.724624 37.00016209 19.387748 36.112602c.494306.8875601.274614 1.7196477-.768919 1.7196477h-15.762844c-.713996 0-1.427992-.7766151-2.251834-2.3853178l-11.423943-21.4678602-17.300682 22.1335303c-.878765 1.1649226-1.647684 1.7196477-2.251835 1.7196477h-16.202226c-1.153379 0-1.812452-1.4977577-1.153379-2.3853178l28.669702-36.8892171-19.22298-36.22354698c-.604151-1.05397763-.439382-1.55323019.549228-1.49775768h15.927612c.549228 0 1.043533.49925256 1.318147.94303262.164769.33283504.604151.99850512.659074 1.22039515l11.643634 21.68975019 17.355605-22.35542028c.823842-.99850512 1.482915-1.49775768 2.087066-1.49775768zm31.393562.99583956h12.801661c1.108369 0 1.607135.49927954 1.551717 1.49783862l-9.033207 73.11671468c-.166256 1.0540346-1.551717 2.3854467-2.604667 2.3854467h-12.912498c-1.052951 0-1.496298-.554755-1.44088-1.6642651l9.033207-73.06123922c.166255-1.05403458 1.496298-2.27449568 2.604667-2.27449568zm32.885883 0h46.040333c1.04263 0 1.481632.49927954 1.426757 1.49783862l-1.646258 12.81484148c-.164625 1.1649856-1.536507 2.3299712-2.688887 2.3299712h-30.730139l-1.810883 14.4236311h16.572325c1.15238 0 1.591382.4992796 1.426756 1.5533141l-1.536506 12.7038905c-.164626 1.1649856-1.536507 2.3854467-2.634012 2.3854467h-15.858947l-1.481632 12.537464h31.498393c1.15238 0 1.591382.4992795 1.426756 1.5533141l-1.536507 12.8148415c-.164626 1.1649856-1.536507 2.3854467-2.634012 2.3854467h-45.930582c-1.04263 0-1.481632-.554755-1.426757-1.6642651l8.944666-73.06123922c.164625-1.05403458 1.426756-2.27449568 2.579136-2.27449568z" fill="#fff"/></svg>