<svg height="78" viewBox="0 0 796 78" width="796" xmlns="http://www.w3.org/2000/svg"><g fill="#fff" fill-rule="nonzero"><path d="m55.3331674 54.6110325 9.7915227 9.2673268c1.0510675.8826025 1.0510675 1.7652051 0 2.7029703-8.5191779 7.6124469-18.36602 11.4186704-29.4852069 11.4186704-11.1191868-.0551627-20.1362388-3.9717115-26.99583671-11.7496464-6.91491719-7.7779349-9.68088407-17.2107496-8.29790063-28.2984441 1.27234476-10.5912306 6.14044647-19.582744 14.60430514-26.9193777 8.4085393-7.33663364 18.034104-11.0325318 28.8766942-11.0325318 11.3404642 0 21.3532643 4.52333805 27.2724334 12.466761.8851094 1.1584158 1.2723448 1.3790664.4425547 2.3719943l-11.6170609 8.8260255c-.9957481.6619519-1.7148995 0-2.6000089-.8826026-3.7063956-3.2545969-8.5744973-4.9094766-14.4936664-4.854314-6.1404465 0-11.6170609 2.0961811-16.4298432 6.2333805-4.8127824 4.1371994-7.6340686 9.2673267-8.4085394 15.2800566-.7191513 5.7920792.7191514 10.7015558 4.2042697 14.6732673 3.4851183 4.0268741 8.0766233 6.0127298 13.8298344 6.0127298 6.1404465 0 11.6723802-1.930693 16.5404819-5.7369165.9404288-.7171146 1.8808575-.6067893 2.7659669.2206506zm65.4027636-53.28819785 26.151813 73.08661415c.493431 1.2677166-.712732 2.5905512-2.193024 2.5905512h-14.364308c-.767558 0-1.315814-.4409449-1.589942-1.2677165l-2.850932-8.5984252h-31.3054198l-4.7698276 8.2125984c-.7127328 1.1023622-1.4802913 1.6535433-2.3575009 1.6535433h-14.3643083c-1.0416865 0-1.4254657-1.1023622-.7675585-1.984252l44.2990881-73.69291335c.49343-.88188977 1.041687-1.32283465 1.644768-1.32283465h1.041687c.49343 0 .986861.44094488 1.425465 1.32283465zm-17.735931 51.67716535h18l-6.575851-20zm67.642473-52h12.801661c1.108369 0 1.607135.49927954 1.551717 1.49783862l-9.033207 73.11671468c-.166256 1.0540346-1.551717 2.3854467-2.604667 2.3854467h-12.912498c-1.052951 0-1.496298-.554755-1.44088-1.6642651l9.033207-73.06123922c.166255-1.05403458 1.496298-2.27449568 2.604667-2.27449568zm75.606438-.99583956h16.312072c1.153378 0 1.867375 1.27586766 1.153378 2.16342777l-28.724624 37.00016209 19.387748 36.112602c.494306.8875601.274614 1.7196477-.768919 1.7196477h-15.762844c-.713996 0-1.427992-.7766151-2.251834-2.3853178l-11.423943-21.4678602-17.300682 22.1335303c-.878765 1.1649226-1.647684 1.7196477-2.251835 1.7196477h-16.202226c-1.153379 0-1.812452-1.4977577-1.153379-2.3853178l28.669702-36.8892171-19.22298-36.22354698c-.604151-1.05397763-.439382-1.55323019.549228-1.49775768h15.927612c.549228 0 1.043533.49925256 1.318147.94303262.164769.33283504.604151.99850512.659074 1.22039515l11.643634 21.68975019 17.355605-22.35542028c.823842-.99850512 1.482915-1.49775768 2.087066-1.49775768zm31.393562.99583956h12.801661c1.108369 0 1.607135.49927954 1.551717 1.49783862l-9.033207 73.11671468c-.166256 1.0540346-1.551717 2.3854467-2.604667 2.3854467h-12.912498c-1.052951 0-1.496298-.554755-1.44088-1.6642651l9.033207-73.06123922c.166255-1.05403458 1.496298-2.27449568 2.604667-2.27449568zm32.885883 0h46.040333c1.04263 0 1.481632.49927954 1.426757 1.49783862l-1.646258 12.81484148c-.164625 1.1649856-1.536507 2.3299712-2.688887 2.3299712h-30.730139l-1.810883 14.4236311h16.572325c1.15238 0 1.591382.4992796 1.426756 1.5533141l-1.536506 12.7038905c-.164626 1.1649856-1.536507 2.3854467-2.634012 2.3854467h-15.858947l-1.481632 12.537464h31.498393c1.15238 0 1.591382.4992795 1.426756 1.5533141l-1.536507 12.8148415c-.164626 1.1649856-1.536507 2.3854467-2.634012 2.3854467h-45.930582c-1.04263 0-1.481632-.554755-1.426757-1.6642651l8.944666-73.06123922c.164625-1.05403458 1.426756-2.27449568 2.579136-2.27449568z"/><path d="m425.562921 12c.802248 1.85209 1.547191 3.9356913 2.349439 6.2508039h19.884269v5.2090032h-9.626966c-.573034 2.6045016-1.375281 5.1511254-2.406742 7.5819935h13.237079v5.3247589h-40.685393v7.8135048c-.229214 9.0289389-2.234832 16.3215434-6.131461 21.8199357l-4.183146-3.7041801c3.094382-4.3987138 4.698876-10.4180064 4.813483-18.1157556v-13.1382637h11.575281l-2.005618-7.5819935h-10.2v-5.2090032h20.170787c-.744944-1.9099679-1.604495-3.7041801-2.521349-5.3247589zm-5.532846 19h10.601504c1.015038-2.5648855 1.804511-5.2519084 2.368421-8h-15zm49.969925-16h32v20h-32zm27 15v-10h-22v10zm-14 9v26h-5.221622v-2.7733333h-10.5v2.7733333h-5.278378v-26zm-16 18h11v-13h-11zm43-18v26h-5.485564v-2.7733333h-11.144357v2.7733333h-5.370079v-26zm-17 18h11v-13h-11zm34.541538 8h-4.96923l-1.169231-5.0801317c1.52.2283205 2.923077.3424808 4.267692.3424808 1.403077 0 2.104616-.7991219 2.104616-2.3402854v-12.100988c-2.104616.7991219-4.267693 1.5982437-6.372308 2.2832053l-1.403077-5.3655324c2.630769-.5708013 5.203077-1.312843 7.775385-2.2261251v-12.3293085h-6.606154v-5.1942919h6.606154v-9.9890231h5.378461v9.9890231h5.729231v5.1942919h-5.729231v10.1602635c1.987692-.9132821 3.916923-1.8836444 5.846154-2.9110867v5.3084522c-1.929231 1.0274424-3.858462 1.9407245-5.846154 2.8540066v15.6970362c0 3.7672887-1.870769 5.7080132-5.612308 5.7080132zm11.885868-44.3138528h13.360522v-7.6861472h5.252855v7.6861472h13.360522v5.219697h-13.360522v8.2023809h11.190865v2.17619 2.6419918c-1.82708 5.965368-4.853181 11.1277057-9.192496 15.4296537 3.539967 2.6385281 7.879282 4.9902597 12.960848 6.9978355l-2.797716 4.474026c-5.48124-2.4090909-10.106036-5.1623377-13.874388-8.1450217-4.339315 3.3841992-9.59217 6.1374459-15.758565 8.3170996l-2.569331-4.5313853c5.709625-1.8354978 10.562806-4.1872294 14.502447-7.1699134-4.453507-4.474026-7.422512-9.4642857-8.964111-15.0854978h-2.969005v-5.1049784h12.218597v-8.2023809h-13.360522zm9.572594 18.3138528c1.343284 4.5 3.80597 8.4807692 7.44403 12 3.358209-3.4615385 5.876866-7.4423077 7.55597-12zm34.016304-12.7356446h21.891305v-13.2643554h5.415217v13.2643554h21.948913v5.2253521h-16.936956c3.686956 8.9577465 9.908695 16.9393283 18.665217 23.9447454l-3.686957 4.5937161c-9.505434-8.3835319-16.188043-17.80065-19.990217-28.2513543v34.2231853h-5.415217v-34.1083424c-4.205435 11.4842904-11.176087 20.9588299-20.911957 28.3661972l-2.995652-4.8808234c8.641304-6.2015168 14.978261-14.1830986 18.895652-23.8873239h-16.879348zm36.294376-13.2643554c3.320388 3.4285714 5.883495 6.4 7.68932 8.9142857l-4.427184 3.0857143c-1.864078-2.8571429-4.427185-5.9428571-7.572816-9.3714286zm44.55679 22.8292683h-10.564544v21.9645233c0 1.383592.738382 2.1330377 2.271945 2.1330377h9.88296c1.703959 0 2.783133-.4611974 3.180723-1.3259424.454389-.9223947.795181-2.8824834 1.022375-5.8226164l5.055078 1.72949c-.454389 5.0155211-1.135973 8.0709535-2.158348 9.1086475-.908778.9223947-2.783132 1.383592-5.509466 1.383592h-13.802066c-3.578313 0-5.33907-1.72949-5.33907-5.1884701v-27.383592l-2.726334 2.7671841-3.180723-4.4390244c5.395869-5.0155211 10.337349-10.9534368 14.824441-17.7560976h3.975903c4.998279 5.3037694 9.769363 10.8381375 14.199656 16.6031042l-3.521515 3.7472284c-4.884681-6.5720621-8.917383-11.6452328-12.211704-15.1618625-2.953528 4.4390244-6.247848 8.7050997-9.996557 12.7982261h19.879518v15.9113082c-.056799 3.1707317-1.760757 4.8425721-5.168675 5.0731708-2.215146 0-4.316695-.0576497-6.304647-.172949l-1.306368-5.1308204c2.101549.2305986 3.919105.345898 5.509466.345898 1.306368 0 1.987952-.691796 1.987952-1.9600887zm14.13253-17.8292683h5v35h-5zm9.575646 47h-8.357934l-1.217712-5.194292c2.712177.2283205 5.313653.3424808 7.749077.3424808 1.328414 0 1.99262-.856202 1.99262-2.5115258v-44.636663h5.258303v46.0065862c0 3.9956092-1.826568 5.9934138-5.424354 5.9934138zm64.351627-52 2.884848 5.4152174c-4.808081 1.6130435-10.125252 2.5923913-15.951515 2.9380435v8.9293478h17.139394v5.7032609h-5.20404v30.0141304h-5.826263v-30.0141304h-6.109091v5.4728261c-.282828 10.1967391-2.488889 18.3195652-6.618182 24.4260869l-4.242424-4.5510869c3.167677-4.7815218 4.921212-11.4065218 5.147475-19.875v-25.002174c7.014141-.1152174 13.236363-1.2673913 18.779798-3.4565217zm-47.927273 4.2295082h9.799564c-.679738-1.5027322-1.416122-2.8852459-2.20915-4.147541l6.117647-1.0819672c.679739 1.5628415 1.302832 3.3060109 1.982571 5.2295082h10.309368v5.7704918h-26zm0 13.0228158h5.797895c-.682106-1.8844621-1.477895-3.6547144-2.387369-5.253652l5.229474-1.998672c.852632 2.0557769 1.648421 4.4541833 2.444211 7.252324h5.002105c.852631-2.3413014 1.591579-4.7397078 2.216842-7.252324l5.286316 1.8844622c-.682106 1.941567-1.364211 3.7118193-2.103158 5.3678618h5.513684v5.4249668h-10.288421v4.625498h9.322105v5.4249668h-9.322105v17.8065629c0 1.0552826-1.989474 2.4656815-5.911579 2.4656815v-6.7383798-13.5338646h-9.890526v-5.4249668h9.890526v-4.625498h-10.8zm3.380435 17.747676 5.619565 1.122807c-1.375 5.7263158-3.288043 10.6666667-5.798913 14.877193l-5.201087-3.0877193c2.570652-4.0421053 4.36413-8.3649123 5.380435-12.9122807zm18.397343-1c1.333333 3.6292683 2.444444 6.9658537 3.222222 10.0097561l-4.888889 1.9902439c-.833333-3.6292683-1.888889-7.2-3.111111-10.6536585z"/></g></svg>